<svg xmlns="http://www.w3.org/2000/svg" viewBox="0 0 32 32">
  <rect width="32" height="32" rx="4" fill="#1f2937"/>
  <rect x="6" y="6" width="20" height="20" rx="2" fill="#374151" stroke="#60a5fa" stroke-width="1.5"/>
  <rect x="10" y="10" width="4" height="4" rx="0.5" fill="#60a5fa"/>
  <rect x="14" y="10" width="4" height="4" rx="0.5" fill="#34d399"/>
  <rect x="18" y="10" width="4" height="4" rx="0.5" fill="#60a5fa"/>
  <rect x="10" y="14" width="4" height="4" rx="0.5" fill="#34d399"/>
  <rect x="14" y="14" width="4" height="4" rx="0.5" fill="#60a5fa"/>
  <rect x="18" y="14" width="4" height="4" rx="0.5" fill="#34d399"/>
  <rect x="10" y="18" width="4" height="4" rx="0.5" fill="#60a5fa"/>
  <rect x="14" y="18" width="4" height="4" rx="0.5" fill="#34d399"/>
  <rect x="18" y="18" width="4" height="4" rx="0.5" fill="#60a5fa"/>
  <line x1="8" y1="24" x2="8" y2="26" stroke="#60a5fa" stroke-width="1"/>
  <line x1="12" y1="24" x2="12" y2="26" stroke="#60a5fa" stroke-width="1"/>
  <line x1="16" y1="24" x2="16" y2="26" stroke="#60a5fa" stroke-width="1"/>
  <line x1="20" y1="24" x2="20" y2="26" stroke="#60a5fa" stroke-width="1"/>
  <line x1="24" y1="24" x2="24" y2="26" stroke="#60a5fa" stroke-width="1"/>
</svg>